<svg width="122" height="39" viewBox="0 0 122 39" fill="none" xmlns="http://www.w3.org/2000/svg">
<rect width="122" height="39" rx="5" fill="#F4D04E"/>
<path d="M22.7213 23V8.72H24.5213V21.4H30.7613V23H22.7213ZM37.1095 12.08C38.0295 12.08 38.8162 12.28 39.4695 12.68C40.1362 13.08 40.6429 13.6467 40.9895 14.38C41.3495 15.1 41.5295 15.9467 41.5295 16.92V17.98H34.1895C34.2162 19.1933 34.5229 20.12 35.1095 20.76C35.7095 21.3867 36.5429 21.7 37.6095 21.7C38.2895 21.7 38.8895 21.64 39.4095 21.52C39.9429 21.3867 40.4895 21.2 41.0495 20.96V22.5C40.5029 22.74 39.9629 22.9133 39.4295 23.02C38.8962 23.14 38.2629 23.2 37.5295 23.2C36.5162 23.2 35.6162 22.9933 34.8295 22.58C34.0562 22.1667 33.4495 21.5533 33.0095 20.74C32.5829 19.9133 32.3695 18.9067 32.3695 17.72C32.3695 16.5467 32.5629 15.54 32.9495 14.7C33.3495 13.86 33.9029 13.2133 34.6095 12.76C35.3295 12.3067 36.1629 12.08 37.1095 12.08ZM37.0895 13.52C36.2495 13.52 35.5829 13.7933 35.0895 14.34C34.6095 14.8733 34.3229 15.62 34.2295 16.58H39.6895C39.6895 15.9667 39.5962 15.4333 39.4095 14.98C39.2229 14.5267 38.9362 14.1733 38.5495 13.92C38.1762 13.6533 37.6895 13.52 37.0895 13.52ZM48.3186 12.1C49.6253 12.1 50.5919 12.3867 51.2186 12.96C51.8453 13.5333 52.1586 14.4467 52.1586 15.7V23H50.8786L50.5386 21.48H50.4586C50.1519 21.8667 49.8319 22.1933 49.4986 22.46C49.1786 22.7133 48.8053 22.9 48.3786 23.02C47.9653 23.14 47.4586 23.2 46.8586 23.2C46.2186 23.2 45.6386 23.0867 45.1186 22.86C44.6119 22.6333 44.2119 22.2867 43.9186 21.82C43.6253 21.34 43.4786 20.74 43.4786 20.02C43.4786 18.9533 43.8986 18.1333 44.7386 17.56C45.5786 16.9733 46.8719 16.6533 48.6186 16.6L50.4386 16.54V15.9C50.4386 15.0067 50.2453 14.3867 49.8586 14.04C49.4719 13.6933 48.9253 13.52 48.2186 13.52C47.6586 13.52 47.1253 13.6067 46.6186 13.78C46.1119 13.94 45.6386 14.1267 45.1986 14.34L44.6586 13.02C45.1253 12.7667 45.6786 12.5533 46.3186 12.38C46.9586 12.1933 47.6253 12.1 48.3186 12.1ZM48.8386 17.82C47.5053 17.8733 46.5786 18.0867 46.0586 18.46C45.5519 18.8333 45.2986 19.36 45.2986 20.04C45.2986 20.64 45.4786 21.08 45.8386 21.36C46.2119 21.64 46.6853 21.78 47.2586 21.78C48.1653 21.78 48.9186 21.5333 49.5186 21.04C50.1186 20.5333 50.4186 19.76 50.4186 18.72V17.76L48.8386 17.82ZM60.4695 12.08C60.6695 12.08 60.8829 12.0933 61.1095 12.12C61.3495 12.1333 61.5562 12.16 61.7295 12.2L61.5095 13.82C61.3362 13.78 61.1429 13.7467 60.9295 13.72C60.7295 13.6933 60.5362 13.68 60.3495 13.68C59.9362 13.68 59.5429 13.7667 59.1695 13.94C58.7962 14.1133 58.4629 14.36 58.1695 14.68C57.8762 14.9867 57.6429 15.36 57.4695 15.8C57.3095 16.24 57.2295 16.7333 57.2295 17.28V23H55.4695V12.28H56.9095L57.1095 14.24H57.1895C57.4162 13.84 57.6895 13.48 58.0095 13.16C58.3295 12.8267 58.6962 12.5667 59.1095 12.38C59.5229 12.18 59.9762 12.08 60.4695 12.08ZM68.8913 12.08C70.1713 12.08 71.1379 12.3933 71.7913 13.02C72.4446 13.6333 72.7713 14.6333 72.7713 16.02V23H71.0313V16.14C71.0313 15.2733 70.8379 14.6267 70.4513 14.2C70.0646 13.7733 69.4579 13.56 68.6313 13.56C67.4446 13.56 66.6246 13.8933 66.1713 14.56C65.7179 15.2267 65.4913 16.1867 65.4913 17.44V23H63.7313V12.28H65.1513L65.4113 13.74H65.5113C65.7513 13.3667 66.0446 13.06 66.3913 12.82C66.7513 12.5667 67.1446 12.38 67.5713 12.26C67.9979 12.14 68.4379 12.08 68.8913 12.08ZM77.8545 12.28V23H76.0945V12.28H77.8545ZM76.9945 8.26C77.2612 8.26 77.4945 8.35333 77.6945 8.54C77.9079 8.71333 78.0145 8.99333 78.0145 9.38C78.0145 9.75333 77.9079 10.0333 77.6945 10.22C77.4945 10.4067 77.2612 10.5 76.9945 10.5C76.7012 10.5 76.4545 10.4067 76.2545 10.22C76.0545 10.0333 75.9545 9.75333 75.9545 9.38C75.9545 8.99333 76.0545 8.71333 76.2545 8.54C76.4545 8.35333 76.7012 8.26 76.9945 8.26ZM86.4108 12.08C87.6908 12.08 88.6574 12.3933 89.3108 13.02C89.9641 13.6333 90.2908 14.6333 90.2908 16.02V23H88.5508V16.14C88.5508 15.2733 88.3574 14.6267 87.9708 14.2C87.5841 13.7733 86.9774 13.56 86.1508 13.56C84.9641 13.56 84.1441 13.8933 83.6908 14.56C83.2374 15.2267 83.0108 16.1867 83.0108 17.44V23H81.2508V12.28H82.6708L82.9308 13.74H83.0308C83.2708 13.3667 83.5641 13.06 83.9108 12.82C84.2708 12.5667 84.6641 12.38 85.0908 12.26C85.5174 12.14 85.9574 12.08 86.4108 12.08ZM97.4141 12.08C98.1207 12.08 98.7541 12.2133 99.3141 12.48C99.8874 12.7467 100.374 13.1533 100.774 13.7H100.874L101.114 12.28H102.514V23.18C102.514 24.1933 102.341 25.04 101.994 25.72C101.647 26.4133 101.121 26.9333 100.414 27.28C99.7074 27.6267 98.8074 27.8 97.7141 27.8C96.9407 27.8 96.2274 27.74 95.5741 27.62C94.9341 27.5133 94.3607 27.3467 93.8541 27.12V25.5C94.2007 25.6733 94.5807 25.82 94.9941 25.94C95.4074 26.0733 95.8541 26.1733 96.3341 26.24C96.8141 26.3067 97.3074 26.34 97.8141 26.34C98.7341 26.34 99.4541 26.0667 99.9741 25.52C100.507 24.9867 100.774 24.2533 100.774 23.32V22.9C100.774 22.74 100.781 22.5133 100.794 22.22C100.807 21.9133 100.821 21.7 100.834 21.58H100.754C100.381 22.1267 99.9141 22.5333 99.3541 22.8C98.8074 23.0667 98.1674 23.2 97.4341 23.2C96.0474 23.2 94.9607 22.7133 94.1741 21.74C93.4007 20.7667 93.0141 19.4067 93.0141 17.66C93.0141 16.5133 93.1874 15.5267 93.5341 14.7C93.8941 13.86 94.4007 13.2133 95.0541 12.76C95.7074 12.3067 96.4941 12.08 97.4141 12.08ZM97.6541 13.56C97.0541 13.56 96.5407 13.72 96.1141 14.04C95.7007 14.36 95.3807 14.8267 95.1541 15.44C94.9407 16.0533 94.8341 16.8 94.8341 17.68C94.8341 19 95.0741 20.0133 95.5541 20.72C96.0474 21.4133 96.7607 21.76 97.6941 21.76C98.2407 21.76 98.7074 21.6933 99.0941 21.56C99.4807 21.4133 99.8007 21.1933 100.054 20.9C100.307 20.5933 100.494 20.2067 100.614 19.74C100.734 19.2733 100.794 18.72 100.794 18.08V17.66C100.794 16.6867 100.681 15.9 100.454 15.3C100.241 14.7 99.9007 14.26 99.4341 13.98C98.9674 13.7 98.3741 13.56 97.6541 13.56Z" fill="black"/>
</svg>
